<?xml version="1.0"?>
<svg version="1.1" xmlns="http://www.w3.org/2000/svg" xmlns:xlink="http://www.w3.org/1999/xlink" width="55.325" height="55.325">
    <desc iVinci="yes" version="4.6" gridStep="20" showGrid="no" snapToGrid="no" codePlatform="0"/>
    <g id="Layer1" name="Layer 1" opacity="1">
        <g id="Shape1">
            <desc shapeID="1" type="0" basicInfo-basicType="0" basicInfo-roundedRectRadius="12" basicInfo-polygonSides="6" basicInfo-starPoints="5" bounding="rect(-27.663,-22.1605,55.326,44.321)" text="" font-familyName="" font-pixelSize="20" font-bold="0" font-underline="0" font-alignment="1" strokeStyle="0" markerStart="0" markerEnd="0" shadowEnabled="0" shadowOffsetX="0" shadowOffsetY="2" shadowBlur="4" shadowOpacity="160" blurEnabled="0" blurRadius="4" transform="matrix(1,0,0,1,27.663,27.6625)" pers-center="0,0" pers-size="0,0" pers-start="0,0" pers-end="0,0" locked="0" mesh="" flag=""/>
            <path id="shapePath1" d="M40.825,5.502 C35.435,5.502 30.413,11.972 27.869,22.063 C23.897,21.056 19.599,20.502 15.444,20.502 C10.688,20.502 6.684,22.105 3.865,25.136 C1.373,27.817 0,31.411 0,35.254 C0,42.101 4.536,49.469 14.497,49.469 C14.64,49.469 14.782,49.477 14.923,49.485 C15.098,49.494 15.272,49.503 15.444,49.503 C21.054,49.503 26.926,48.497 31.9,46.721 C34.51,48.752 37.788,49.823 41.098,49.823 C43.25,49.823 45.412,49.375 47.404,48.456 C52.417,46.142 55.292,41.357 55.292,35.331 C55.292,35.188 55.3,35.046 55.308,34.905 C55.317,34.73 55.326,34.556 55.326,34.384 C55.325,20.723 49.37,5.502 40.825,5.502 M15.028,47.488 C14.852,47.478 14.674,47.469 14.497,47.469 C5.911,47.469 2,41.137 2,35.254 C2,31.917 3.183,28.807 5.33,26.498 C7.761,23.884 11.258,22.502 15.444,22.502 C19.722,22.502 23.926,23.085 27.694,24.08 L28.323,24.255 C29.337,24.537 30.305,24.848 31.229,25.18 C31.395,25.24 31.558,25.302 31.721,25.364 C31.933,25.444 32.142,25.525 32.349,25.607 C32.601,25.708 32.853,25.808 33.099,25.913 C33.115,25.92 33.131,25.927 33.148,25.934 C36.305,27.285 38.853,28.948 40.457,30.763 C40.514,30.828 40.574,30.893 40.629,30.959 C40.736,31.086 40.836,31.214 40.934,31.343 C41.017,31.453 41.096,31.564 41.172,31.675 C41.244,31.779 41.318,31.884 41.383,31.989 C41.516,32.204 41.639,32.42 41.745,32.637 C41.772,32.692 41.791,32.747 41.816,32.802 C41.898,32.983 41.972,33.164 42.034,33.346 C42.06,33.422 42.082,33.499 42.105,33.575 C42.155,33.744 42.196,33.913 42.228,34.083 C42.242,34.154 42.257,34.224 42.268,34.295 C42.303,34.531 42.326,34.767 42.326,35.003 C42.326,35.214 42.31,35.425 42.282,35.637 C42.272,35.714 42.253,35.79 42.239,35.867 C42.215,35.999 42.191,36.131 42.157,36.264 C42.131,36.365 42.096,36.465 42.064,36.565 C42.03,36.669 41.997,36.773 41.957,36.878 C41.91,36.998 41.857,37.118 41.802,37.237 C41.766,37.316 41.729,37.394 41.69,37.473 C41.618,37.614 41.541,37.754 41.458,37.894 C41.429,37.942 41.4,37.99 41.37,38.038 C41.265,38.205 41.156,38.371 41.035,38.536 C41.03,38.542 41.025,38.548 41.021,38.555 C39.496,40.628 36.725,42.535 33.195,44.052 C33.161,44.067 33.128,44.082 33.094,44.096 C32.909,44.175 32.717,44.25 32.528,44.327 C32.313,44.414 32.098,44.501 31.876,44.585 C27.191,46.378 21.389,47.504 15.445,47.504 C15.307,47.502 15.168,47.495 15.028,47.488 M53.311,34.799 C53.301,34.975 53.292,35.153 53.292,35.33 C53.292,40.544 50.841,44.666 46.565,46.64 C42.556,48.489 37.758,48.142 34.115,45.852 C40.103,43.28 44.324,39.501 44.324,35.002 C44.324,34.697 44.299,34.397 44.261,34.099 C44.257,34.066 44.249,34.033 44.244,34 C43.528,28.946 37.465,24.895 29.786,22.594 C32.062,13.527 36.44,7.502 40.823,7.502 C47.248,7.502 53.323,20.565 53.323,34.383 C53.325,34.521 53.317,34.66 53.311,34.799 Z" style="stroke:#000000;stroke-opacity:1;stroke-width:0;stroke-linejoin:bevel;stroke-miterlimit:2;stroke-linecap:square;fill-rule:evenodd;fill:#500050;fill-opacity:1;"/>
        </g>
        <g id="Shape2">
            <desc shapeID="2" type="0" basicInfo-basicType="0" basicInfo-roundedRectRadius="12" basicInfo-polygonSides="6" basicInfo-starPoints="5" bounding="rect(-2.67489,-1.219,5.34979,2.438)" text="" font-familyName="" font-pixelSize="20" font-bold="0" font-underline="0" font-alignment="1" strokeStyle="0" markerStart="0" markerEnd="0" shadowEnabled="0" shadowOffsetX="0" shadowOffsetY="2" shadowBlur="4" shadowOpacity="160" blurEnabled="0" blurRadius="4" transform="matrix(1,0,0,1,14.0001,25.377)" pers-center="0,0" pers-size="0,0" pers-start="0,0" pers-end="0,0" locked="0" mesh="" flag=""/>
            <path id="shapePath2" d="M15.675,24.158 C14.395,24.158 13.177,24.318 12.055,24.634 C11.523,24.783 11.213,25.336 11.363,25.867 C11.487,26.308 11.888,26.596 12.325,26.596 C12.415,26.596 12.507,26.584 12.596,26.559 C13.542,26.292 14.578,26.158 15.675,26.158 C16.228,26.158 16.675,25.711 16.675,25.158 C16.675,24.605 16.228,24.158 15.675,24.158 Z" style="stroke:#000000;stroke-opacity:1;stroke-width:0;stroke-linejoin:bevel;stroke-miterlimit:2;stroke-linecap:square;fill-rule:evenodd;fill:#500050;fill-opacity:1;"/>
        </g>
        <g id="Shape3">
            <desc shapeID="3" type="0" basicInfo-basicType="0" basicInfo-roundedRectRadius="12" basicInfo-polygonSides="6" basicInfo-starPoints="5" bounding="rect(-2.49915,-1.95214,4.9983,3.90427)" text="" font-familyName="" font-pixelSize="20" font-bold="0" font-underline="0" font-alignment="1" strokeStyle="0" markerStart="0" markerEnd="0" shadowEnabled="0" shadowOffsetX="0" shadowOffsetY="2" shadowBlur="4" shadowOpacity="160" blurEnabled="0" blurRadius="4" transform="matrix(1,0,0,1,41.8267,11.4549)" pers-center="0,0" pers-size="0,0" pers-start="0,0" pers-end="0,0" locked="0" mesh="" flag=""/>
            <path id="shapePath3" d="M40.66,9.56 C40.142,9.377 39.573,9.647 39.387,10.164 C39.2,10.683 39.469,11.255 39.987,11.443 C39.999,11.448 41.203,11.897 42.673,13.164 C42.862,13.327 43.095,13.407 43.326,13.407 C43.606,13.407 43.886,13.29 44.083,13.06 C44.444,12.641 44.397,12.01 43.979,11.65 C42.203,10.119 40.723,9.583 40.66,9.56 Z" style="stroke:#323232;stroke-opacity:1;stroke-width:0;stroke-linejoin:miter;stroke-miterlimit:2;stroke-linecap:round;fill-rule:evenodd;fill:#500050;fill-opacity:1;"/>
        </g>
    </g>
</svg>
