<?xml version="1.0"?>
<svg version="1.1" xmlns="http://www.w3.org/2000/svg" xmlns:xlink="http://www.w3.org/1999/xlink" width="459.527" height="459.527">
    <desc iVinci="yes" version="4.6" gridStep="20" showGrid="no" snapToGrid="no" codePlatform="0"/>
    <g id="Layer1" name="Layer 1" opacity="1">
        <g id="Shape1">
            <desc shapeID="1" type="0" basicInfo-basicType="0" basicInfo-roundedRectRadius="12" basicInfo-polygonSides="6" basicInfo-starPoints="5" bounding="rect(-229.763,-219.513,459.526,439.027)" text="" font-familyName="" font-pixelSize="20" font-bold="0" font-underline="0" font-alignment="1" strokeStyle="0" markerStart="0" markerEnd="0" shadowEnabled="0" shadowOffsetX="0" shadowOffsetY="2" shadowBlur="4" shadowOpacity="160" blurEnabled="0" blurRadius="4" transform="matrix(1,0,0,1,229.763,229.764)" pers-center="0,0" pers-size="0,0" pers-start="0,0" pers-end="0,0" locked="0" mesh="" flag=""/>
            <path id="shapePath1" d="M412.027,66.276 L389.471,66.276 L269.437,18.262 C242.733,7.58 213.321,7.58 186.617,18.262 L66.583,66.276 L47.499,66.276 C34.253,66.276 21.513,71.866 12.544,81.613 C3.576,91.36 -0.936996,104.521 0.162994,117.721 L2.439,145.034 C3.15601,153.643 7.442,161.668 14.198,167.053 C20.307,171.921 28.071,174.328 35.825,173.844 L23.438,390.61 C22.558,406.011 27.907,420.67 38.5,431.885 C49.092,443.1 63.422,449.277 78.848,449.277 L377.206,449.277 C392.633,449.277 406.962,443.101 417.554,431.886 C428.147,420.671 433.495,406.012 432.616,390.611 L419.98,169.495 L420.387,169.597 C429.862,171.967 439.714,169.878 447.412,163.866 C455.111,157.855 459.526,148.805 459.526,139.037 L459.526,113.776 C459.527,87.584 438.218,66.276 412.027,66.276 M192.188,32.189 C215.298,22.945 240.755,22.945 263.866,32.189 L349.083,66.276 L106.971,66.276 L192.188,32.189 M417.64,391.465 C418.282,402.704 414.379,413.401 406.649,421.585 C398.919,429.769 388.463,434.276 377.206,434.276 L78.848,434.276 C67.591,434.276 57.135,429.769 49.405,421.585 C41.676,413.401 37.772,402.704 38.414,391.465 L50.967,171.789 L117.044,162.349 C121.755,161.675 126.544,161.601 131.274,162.127 L255.068,175.882 C257.716,176.176 260.363,176.323 263.004,176.323 C269.331,176.323 275.618,175.48 281.777,173.8 L341.864,157.412 C351.185,154.87 361.064,154.766 370.434,157.108 L404.738,165.684 L417.64,391.465 M444.527,139.037 C444.527,144.153 442.214,148.894 438.181,152.042 C434.149,155.19 428.99,156.287 424.025,155.044 L374.072,142.556 C362.214,139.59 349.711,139.724 337.918,142.94 L277.831,159.328 C270.933,161.209 263.833,161.762 256.726,160.974 L132.93,147.219 C130.307,146.927 127.671,146.782 125.035,146.782 C121.654,146.782 118.273,147.022 114.923,147.5 L36.163,158.751 C31.621,159.401 27.137,158.182 23.546,155.321 C19.955,152.459 17.768,148.363 17.387,143.787 L16.794,136.671 L93.791,125.672 C114.02,122.782 134.604,122.111 154.973,123.679 L227.452,129.254 C231.588,129.576 235.187,126.481 235.505,122.351 C235.822,118.221 232.732,114.616 228.602,114.298 L156.123,108.723 C134.664,107.071 112.978,107.778 91.669,110.823 L15.546,121.698 L15.111,116.476 C14.347,107.312 17.356,98.538 23.583,91.771 C29.81,85.003 38.303,81.277 47.499,81.277 L412.027,81.277 C429.947,81.277 444.527,95.857 444.527,113.777 L444.527,139.037 Z" style="stroke:#000000;stroke-opacity:1;stroke-width:1;stroke-linejoin:bevel;stroke-miterlimit:2;stroke-linecap:square;fill-rule:nonzero;fill:#500050;fill-opacity:1;"/>
        </g>
        <g id="Shape2">
            <desc shapeID="2" type="0" basicInfo-basicType="0" basicInfo-roundedRectRadius="12" basicInfo-polygonSides="6" basicInfo-starPoints="5" bounding="rect(-35.5018,-11.501,71.0035,23.002)" text="" font-familyName="" font-pixelSize="20" font-bold="0" font-underline="0" font-alignment="1" strokeStyle="0" markerStart="0" markerEnd="0" shadowEnabled="0" shadowOffsetX="0" shadowOffsetY="2" shadowBlur="4" shadowOpacity="160" blurEnabled="0" blurRadius="4" transform="matrix(1,0,0,1,344.026,109.777)" pers-center="0,0" pers-size="0,0" pers-start="0,0" pers-end="0,0" locked="0" mesh="" flag=""/>
            <path id="shapePath2" d="M372.027,98.276 L371.663,98.276 C355.366,98.276 339.087,100.28 323.277,104.233 L314.208,106.5 C310.189,107.505 307.746,111.577 308.75,115.595 C309.602,119.003 312.66,121.278 316.021,121.278 C316.623,121.278 317.235,121.205 317.846,121.052 L326.916,118.784 C341.537,115.129 356.592,113.275 371.664,113.275 L372.028,113.275 C376.17,113.275 379.528,109.917 379.528,105.775 C379.528,101.633 376.169,98.276 372.027,98.276 Z" style="stroke:#000000;stroke-opacity:1;stroke-width:1;stroke-linejoin:bevel;stroke-miterlimit:2;stroke-linecap:square;fill-rule:nonzero;fill:#500050;fill-opacity:1;"/>
        </g>
        <g id="Shape3">
            <desc shapeID="3" type="0" basicInfo-basicType="0" basicInfo-roundedRectRadius="12" basicInfo-polygonSides="6" basicInfo-starPoints="5" bounding="rect(-10.4714,-59.4964,20.9428,118.993)" text="" font-familyName="" font-pixelSize="20" font-bold="0" font-underline="0" font-alignment="1" strokeStyle="0" markerStart="0" markerEnd="0" shadowEnabled="0" shadowOffsetX="0" shadowOffsetY="2" shadowBlur="4" shadowOpacity="160" blurEnabled="0" blurRadius="4" transform="matrix(1,0,0,1,387.518,293.775)" pers-center="0,0" pers-size="0,0" pers-start="0,0" pers-end="0,0" locked="0" mesh="" flag=""/>
            <path id="shapePath3" d="M384.119,234.29 C379.983,234.526 376.823,238.07 377.059,242.206 L383.001,346.199 C383.229,350.189 386.536,353.271 390.482,353.271 C390.626,353.271 390.771,353.267 390.917,353.259 C395.053,353.023 398.213,349.479 397.977,345.343 L392.035,241.35 C391.798,237.215 388.248,234.061 384.119,234.29 Z" style="stroke:#000000;stroke-opacity:1;stroke-width:1;stroke-linejoin:bevel;stroke-miterlimit:2;stroke-linecap:square;fill-rule:nonzero;fill:#500050;fill-opacity:1;"/>
        </g>
        <g id="Shape4">
            <desc shapeID="4" type="0" basicInfo-basicType="0" basicInfo-roundedRectRadius="12" basicInfo-polygonSides="6" basicInfo-starPoints="5" bounding="rect(-53.4997,-53.4999,107,107)" text="" font-familyName="" font-pixelSize="20" font-bold="0" font-underline="0" font-alignment="1" strokeStyle="0" markerStart="0" markerEnd="0" shadowEnabled="0" shadowOffsetX="0" shadowOffsetY="2" shadowBlur="4" shadowOpacity="160" blurEnabled="0" blurRadius="4" transform="matrix(1,0,0,1,205.763,327.776)" pers-center="0,0" pers-size="0,0" pers-start="0,0" pers-end="0,0" locked="0" mesh="" flag=""/>
            <path id="shapePath4" d="M257.066,276.473 C254.137,273.544 249.388,273.544 246.46,276.473 L154.46,368.473 C151.531,371.402 151.531,376.151 154.46,379.079 C155.924,380.543 157.844,381.276 159.763,381.276 C161.682,381.276 163.602,380.544 165.066,379.079 L257.066,287.079 C259.995,284.15 259.995,279.401 257.066,276.473 Z" style="stroke:#000000;stroke-opacity:1;stroke-width:1;stroke-linejoin:bevel;stroke-miterlimit:2;stroke-linecap:square;fill-rule:nonzero;fill:#500050;fill-opacity:1;"/>
        </g>
        <g id="Shape5">
            <desc shapeID="5" type="0" basicInfo-basicType="0" basicInfo-roundedRectRadius="12" basicInfo-polygonSides="6" basicInfo-starPoints="5" bounding="rect(-19.5,-7.5,39,15)" text="" font-familyName="" font-pixelSize="20" font-bold="0" font-underline="0" font-alignment="1" strokeStyle="0" markerStart="0" markerEnd="0" shadowEnabled="0" shadowOffsetX="0" shadowOffsetY="2" shadowBlur="4" shadowOpacity="160" blurEnabled="0" blurRadius="4" transform="matrix(1,0,0,1,240.027,337.776)" pers-center="0,0" pers-size="0,0" pers-start="0,0" pers-end="0,0" locked="0" mesh="" flag=""/>
            <path id="shapePath5" d="M252.027,330.276 L228.027,330.276 C223.885,330.276 220.527,333.634 220.527,337.776 C220.527,341.918 223.885,345.276 228.027,345.276 L252.027,345.276 C256.169,345.276 259.527,341.918 259.527,337.776 C259.527,333.634 256.169,330.276 252.027,330.276 Z" style="stroke:#000000;stroke-opacity:1;stroke-width:1;stroke-linejoin:bevel;stroke-miterlimit:2;stroke-linecap:square;fill-rule:nonzero;fill:#500050;fill-opacity:1;"/>
        </g>
        <g id="Shape6">
            <desc shapeID="6" type="0" basicInfo-basicType="0" basicInfo-roundedRectRadius="12" basicInfo-polygonSides="6" basicInfo-starPoints="5" bounding="rect(-19.5,-7.5,39,15)" text="" font-familyName="" font-pixelSize="20" font-bold="0" font-underline="0" font-alignment="1" strokeStyle="0" markerStart="0" markerEnd="0" shadowEnabled="0" shadowOffsetX="0" shadowOffsetY="2" shadowBlur="4" shadowOpacity="160" blurEnabled="0" blurRadius="4" transform="matrix(1,0,0,1,216.027,361.776)" pers-center="0,0" pers-size="0,0" pers-start="0,0" pers-end="0,0" locked="0" mesh="" flag=""/>
            <path id="shapePath6" d="M228.027,354.276 L204.027,354.276 C199.885,354.276 196.527,357.634 196.527,361.776 C196.527,365.918 199.885,369.276 204.027,369.276 L228.027,369.276 C232.169,369.276 235.527,365.918 235.527,361.776 C235.527,357.634 232.169,354.276 228.027,354.276 Z" style="stroke:#000000;stroke-opacity:1;stroke-width:1;stroke-linejoin:bevel;stroke-miterlimit:2;stroke-linecap:square;fill-rule:nonzero;fill:#500050;fill-opacity:1;"/>
        </g>
        <g id="Shape7">
            <desc shapeID="7" type="0" basicInfo-basicType="0" basicInfo-roundedRectRadius="12" basicInfo-polygonSides="6" basicInfo-starPoints="5" bounding="rect(-19.5,-7.5,39,15)" text="" font-familyName="" font-pixelSize="20" font-bold="0" font-underline="0" font-alignment="1" strokeStyle="0" markerStart="0" markerEnd="0" shadowEnabled="0" shadowOffsetX="0" shadowOffsetY="2" shadowBlur="4" shadowOpacity="160" blurEnabled="0" blurRadius="4" transform="matrix(1,0,0,1,264.027,313.776)" pers-center="0,0" pers-size="0,0" pers-start="0,0" pers-end="0,0" locked="0" mesh="" flag=""/>
            <path id="shapePath7" d="M276.027,306.276 L252.027,306.276 C247.885,306.276 244.527,309.634 244.527,313.776 C244.527,317.918 247.885,321.276 252.027,321.276 L276.027,321.276 C280.169,321.276 283.527,317.918 283.527,313.776 C283.527,309.634 280.169,306.276 276.027,306.276 Z" style="stroke:#000000;stroke-opacity:1;stroke-width:1;stroke-linejoin:bevel;stroke-miterlimit:2;stroke-linecap:square;fill-rule:nonzero;fill:#500050;fill-opacity:1;"/>
        </g>
        <g id="Shape8">
            <desc shapeID="8" type="0" basicInfo-basicType="0" basicInfo-roundedRectRadius="12" basicInfo-polygonSides="6" basicInfo-starPoints="5" bounding="rect(-19.5,-7.5,39,15)" text="" font-familyName="" font-pixelSize="20" font-bold="0" font-underline="0" font-alignment="1" strokeStyle="0" markerStart="0" markerEnd="0" shadowEnabled="0" shadowOffsetX="0" shadowOffsetY="2" shadowBlur="4" shadowOpacity="160" blurEnabled="0" blurRadius="4" transform="matrix(1,0,0,1,287.763,289.776)" pers-center="0,0" pers-size="0,0" pers-start="0,0" pers-end="0,0" locked="0" mesh="" flag=""/>
            <path id="shapePath8" d="M299.763,282.276 L275.763,282.276 C271.621,282.276 268.263,285.634 268.263,289.776 C268.263,293.918 271.621,297.276 275.763,297.276 L299.763,297.276 C303.905,297.276 307.263,293.918 307.263,289.776 C307.263,285.634 303.905,282.276 299.763,282.276 Z" style="stroke:#323232;stroke-opacity:1;stroke-width:1;stroke-linejoin:miter;stroke-miterlimit:2;stroke-linecap:round;fill-rule:nonzero;fill:#500050;fill-opacity:1;"/>
        </g>
    </g>
</svg>
