<?xml version="1.0"?>
<svg version="1.1" xmlns="http://www.w3.org/2000/svg" xmlns:xlink="http://www.w3.org/1999/xlink" width="464.212" height="464.212">
    <desc iVinci="yes" version="4.6" gridStep="20" showGrid="no" snapToGrid="no" codePlatform="0"/>
    <g id="Layer1" name="Layer 1" opacity="1">
        <g id="Shape1">
            <desc shapeID="1" type="0" basicInfo-basicType="0" basicInfo-roundedRectRadius="12" basicInfo-polygonSides="6" basicInfo-starPoints="5" bounding="rect(-232.106,-207.395,464.212,414.789)" text="" font-familyName="" font-pixelSize="20" font-bold="0" font-underline="0" font-alignment="1" strokeStyle="0" markerStart="0" markerEnd="0" shadowEnabled="0" shadowOffsetX="0" shadowOffsetY="2" shadowBlur="4" shadowOpacity="160" blurEnabled="0" blurRadius="4" transform="matrix(1,0,0,1,232.106,232.106)" pers-center="0,0" pers-size="0,0" pers-start="0,0" pers-end="0,0" locked="0" mesh="" flag=""/>
            <path id="shapePath1" d="M345.084,347.126 C347.017,350.474 345.87,354.755 342.522,356.688 L334.611,361.256 C333.508,361.893 332.305,362.195 331.117,362.195 C328.698,362.195 326.345,360.94 325.049,358.694 C323.116,355.346 324.263,351.065 327.611,349.132 L335.522,344.564 C338.87,342.631 343.151,343.778 345.084,347.126 M342.523,317.979 L334.612,313.411 C331.264,311.478 326.984,312.625 325.049,315.973 C323.116,319.321 324.263,323.602 327.611,325.536 L335.522,330.104 C336.625,330.741 337.828,331.043 339.016,331.043 C341.435,331.043 343.787,329.788 345.084,327.543 C347.017,324.194 345.871,319.913 342.523,317.979 M269.913,407.892 C233.455,425.224 192.572,429.856 153.586,421.275 C183.524,420.244 212.874,412.195 239.659,397.533 C244.893,394.669 250.068,391.517 255.04,388.165 C258.246,386.004 259.092,381.654 256.931,378.448 C254.77,375.242 250.42,374.395 247.214,376.556 C242.598,379.668 237.795,382.593 232.937,385.252 C205.958,400.02 176.174,407.548 145.964,407.384 C171.62,393.468 194.846,374.82 213.723,352.889 C235.878,327.145 251.95,297.547 261.492,264.917 C271.044,232.264 273.457,198.666 268.666,165.059 C265.33,141.63 258.515,118.811 248.409,97.227 C247.97,96.085 247.236,95.071 246.273,94.293 L210.156,65.145 C209.975,64.844 210.074,63.582 210.898,62.799 L218.231,55.831 L221.073,58.693 C223.797,61.435 228.229,61.45 230.972,58.726 C233.715,56.001 233.73,51.569 231.005,48.827 L228.381,46.186 L235.49,39.431 C236.315,38.647 237.578,38.613 237.857,38.798 L267.12,79.091 C267.81,80.041 268.728,80.803 269.79,81.305 C304.33,97.65 332.384,124.185 350.918,158.044 C360.802,176.1 367.511,195.496 370.858,215.693 C371.49,219.507 375.094,222.09 378.908,221.455 C382.722,220.823 385.302,217.219 384.67,213.405 C381.066,191.651 373.841,170.762 363.199,151.322 C343.528,115.387 313.89,87.105 277.407,69.43 L249.186,30.572 C246.757,27.228 243.064,25.17 238.785,24.778 C234.108,24.348 229.266,26.033 225.847,29.283 L201.253,52.652 C197.834,55.902 195.906,60.648 196.097,65.347 C196.271,69.64 198.139,73.433 201.353,76.027 L236.186,104.145 C245.453,124.183 251.715,145.333 254.806,167.036 C255.182,169.676 255.512,172.315 255.794,174.955 C251.569,183.988 246.652,192.737 241.164,200.984 C225.446,224.6 205.245,244.2 181.12,259.239 C157.012,274.27 130.524,283.777 102.391,287.494 C74.525,291.174 45.465,288.823 18.349,280.698 C14.703,279.604 10.846,279.994 7.493,281.801 C4.14,283.606 1.69099,286.61 0.597,290.257 C-0.664001,294.459 0.100998,299.054 2.63899,302.623 L5.97,307.963 C6.146,308.268 6.334,308.569 6.533,308.862 C31.103,347.99 69.565,375.319 114.854,385.822 C118.609,386.692 122.429,387.447 126.209,388.066 C130.025,388.69 133.624,386.104 134.248,382.288 C134.872,378.473 132.286,374.874 128.47,374.249 C124.991,373.68 121.473,372.985 118.016,372.184 C81.708,363.763 50.175,343.595 27.718,314.738 C47.31,329.923 70.048,340.732 94.698,346.45 C126.395,353.802 159.274,352.172 189.781,341.735 C193.439,340.484 195.389,336.504 194.138,332.846 C192.887,329.189 188.905,327.239 185.249,328.489 C157.225,338.077 127.007,339.572 97.862,332.813 C72.258,326.874 48.903,314.965 29.434,298.037 C53.967,303.472 79.535,304.636 104.226,301.374 C134.351,297.393 162.715,287.213 188.528,271.12 C214.358,255.018 235.988,234.031 252.82,208.741 C254.26,206.576 255.664,204.379 257.029,202.154 C256.708,221.971 253.712,241.656 248.056,260.99 C239.078,291.692 223.957,319.539 203.114,343.759 C182.472,367.74 156.3,387.557 127.432,401.066 C123.768,402.778 120.99,405.815 119.61,409.616 C118.231,413.417 118.414,417.528 120.124,421.189 C122.098,425.418 125.967,428.522 130.517,429.549 C130.517,429.549 138.072,431.771 138.441,431.863 C156.05,436.952 174.143,439.476 192.2,439.476 C220.888,439.476 249.488,433.106 275.925,420.538 C279.417,418.878 280.902,414.702 279.241,411.211 C277.581,407.717 273.405,406.233 269.913,407.892 M306.679,133.196 C303.288,135.052 302.044,139.307 303.901,142.698 C316.988,166.602 324.572,193.517 325.833,220.533 C326.008,224.284 329.104,227.207 332.82,227.207 C332.93,227.207 333.041,227.205 333.152,227.2 C337.014,227.019 339.998,223.743 339.818,219.881 C338.46,190.751 330.286,161.736 316.182,135.975 C314.324,132.584 310.071,131.34 306.679,133.196 M362.049,356.921 C358.183,356.921 355.049,360.055 355.049,363.921 L355.049,373.057 C355.049,376.923 358.183,380.057 362.049,380.057 C365.915,380.057 369.049,376.923 369.049,373.057 L369.049,363.921 C369.049,360.055 365.914,356.921 362.049,356.921 M396.484,349.133 L388.572,344.566 C385.226,342.635 380.943,343.78 379.01,347.129 C377.077,350.477 378.225,354.758 381.573,356.691 L389.485,361.258 C390.587,361.894 391.791,362.196 392.978,362.196 C395.397,362.196 397.75,360.941 399.047,358.695 C400.979,355.347 399.832,351.066 396.484,349.133 M431.931,337.335 C431.931,375.869 400.581,407.218 362.047,407.218 C323.513,407.218 292.164,375.868 292.164,337.335 C292.164,298.802 323.513,267.452 362.047,267.452 C400.581,267.452 431.931,298.801 431.931,337.335 M417.931,337.335 C417.931,306.521 392.862,281.452 362.047,281.452 C331.233,281.452 306.164,306.521 306.164,337.335 C306.164,368.149 331.233,393.218 362.047,393.218 C392.862,393.218 417.931,368.149 417.931,337.335 M362.049,294.613 C358.183,294.613 355.049,297.747 355.049,301.613 L355.049,310.748 C355.049,314.614 358.183,317.748 362.049,317.748 C365.915,317.748 369.049,314.614 369.049,310.748 L369.049,301.613 C369.049,297.747 365.914,294.613 362.049,294.613 M464.212,337.335 C464.212,393.669 418.381,439.501 362.046,439.501 C305.713,439.501 259.882,393.669 259.882,337.335 C259.882,281.001 305.713,235.169 362.046,235.169 C418.381,235.169 464.212,281 464.212,337.335 M450.212,337.335 C450.212,288.72 410.661,249.169 362.046,249.169 C313.432,249.169 273.882,288.72 273.882,337.335 C273.882,385.95 313.432,425.501 362.046,425.501 C410.661,425.5 450.212,385.95 450.212,337.335 M389.484,313.409 L381.572,317.977 C378.224,319.91 377.077,324.191 379.01,327.539 C380.306,329.785 382.659,331.04 385.079,331.04 C386.267,331.04 387.47,330.738 388.572,330.101 L396.484,325.533 C399.832,323.6 400.979,319.319 399.046,315.971 C397.113,312.623 392.831,311.476 389.484,313.409 Z" style="stroke:#323232;stroke-opacity:1;stroke-width:1;stroke-linejoin:miter;stroke-miterlimit:2;stroke-linecap:round;fill-rule:nonzero;fill:#500050;fill-opacity:1;"/>
        </g>
    </g>
</svg>
