<?xml version="1.0" encoding="UTF-8" standalone="no"?>
<svg
   height="48px"
   viewBox="0 0 24 24"
   width="48px"
   fill="#000000"
   version="1.1"
   id="svg6"
   sodipodi:docname="logo-white.svg"
   inkscape:version="1.1 (c68e22c387, 2021-05-23)"
   xmlns:inkscape="http://www.inkscape.org/namespaces/inkscape"
   xmlns:sodipodi="http://sodipodi.sourceforge.net/DTD/sodipodi-0.dtd"
   xmlns="http://www.w3.org/2000/svg"
   xmlns:svg="http://www.w3.org/2000/svg">
  <defs
     id="defs10" />
  <sodipodi:namedview
     id="namedview8"
     pagecolor="#ffffff"
     bordercolor="#666666"
     borderopacity="1.0"
     inkscape:pageshadow="2"
     inkscape:pageopacity="0.0"
     inkscape:pagecheckerboard="0"
     showgrid="false"
     inkscape:zoom="18.020833"
     inkscape:cx="24"
     inkscape:cy="23.944509"
     inkscape:window-width="1920"
     inkscape:window-height="1054"
     inkscape:window-x="-9"
     inkscape:window-y="-9"
     inkscape:window-maximized="1"
     inkscape:current-layer="svg6" />
  <path
     d="M0 0h24v24H0V0z"
     fill="none"
     id="path2" />
  <path
     d="M12 6c1.11 0 2-.9 2-2 0-.38-.1-.73-.29-1.03L12 0l-1.71 2.97c-.19.3-.29.65-.29 1.03 0 1.1.9 2 2 2zm6 3h-5V7h-2v2H6c-1.66 0-3 1.34-3 3v9c0 .55.45 1 1 1h16c.55 0 1-.45 1-1v-9c0-1.66-1.34-3-3-3zm1 11H5v-3c.9-.01 1.76-.37 2.4-1.01l1.09-1.07 1.07 1.07c1.31 1.31 3.59 1.3 4.89 0l1.08-1.07 1.07 1.07c.64.64 1.5 1 2.4 1.01v3zm0-4.5c-.51-.01-.99-.2-1.35-.57l-2.13-2.13-2.14 2.13c-.74.74-2.03.74-2.77 0L8.48 12.8l-2.14 2.13c-.35.36-.83.56-1.34.57V12c0-.55.45-1 1-1h12c.55 0 1 .45 1 1v3.5z"
     id="path4" />
  <path
     style="fill:#800080;stroke-width:0.0554913"
     d="M 7.5151546,43.901238 C 6.9451175,43.747009 6.4602785,43.328949 6.1947837,42.762729 L 6.0485549,42.450867 v -9.572254 c 0,-10.285626 -0.012834,-9.807351 0.2881218,-10.737573 0.7135378,-2.205469 2.7003561,-3.815029 5.0298553,-4.074784 0.338713,-0.03777 2.367351,-0.05932 5.583882,-0.05932 h 5.051898 V 16.009249 14.011561 H 24 25.997688 v 1.995136 1.995137 l 5.396532,0.02002 c 5.300939,0.01966 5.405182,0.02213 5.884876,0.139473 2.100072,0.513699 3.74634,2.008073 4.384227,3.979714 0.300956,0.930222 0.288122,0.451947 0.288122,10.737573 v 9.572254 l -0.14763,0.314922 c -0.20669,0.440908 -0.547672,0.789195 -0.981968,1.003001 l -0.366323,0.180343 -16.343369,0.01036 c -12.833356,0.0081 -16.3978405,-0.0044 -16.5970004,-0.05826 z M 38.039306,37.020325 v -3.016669 l -0.587327,-0.06609 c -1.217155,-0.13696 -2.219212,-0.4958 -3.190881,-1.142667 -0.439547,-0.292618 -0.857638,-0.664323 -1.890514,-1.680762 l -1.326158,-1.305055 -1.260942,1.245706 c -0.693517,0.685138 -1.419682,1.363445 -1.6137,1.50735 -1.762197,1.307036 -4.27677,1.693141 -6.398144,0.982416 -0.671033,-0.224817 -1.383183,-0.593391 -1.907051,-0.986997 -0.243443,-0.18291 -0.979285,-0.872205 -1.635203,-1.531766 -0.655919,-0.659561 -1.215154,-1.199202 -1.242745,-1.199202 -0.02759,0 -0.640129,0.581665 -1.361198,1.292589 -1.027808,1.013349 -1.434156,1.374556 -1.880965,1.672009 -0.977374,0.650664 -1.976956,1.009155 -3.196457,1.146379 l -0.5873274,0.06609 v 3.016669 3.016669 H 24 38.039306 Z M 10.88305,30.905563 c 0.410926,-0.091 0.868986,-0.288216 1.226355,-0.527996 0.145838,-0.09785 1.294953,-1.203841 2.553588,-2.457752 l 2.288427,-2.279839 2.345099,2.332819 c 2.552129,2.538765 2.582626,2.563534 3.510417,2.851102 1.076168,0.333557 2.48983,0.136111 3.412717,-0.476652 0.167861,-0.111454 1.32279,-1.216176 2.566509,-2.454937 l 2.261306,-2.252294 2.37222,2.361035 c 2.115743,2.105769 2.414487,2.382765 2.76316,2.562015 0.428954,0.220521 1.041156,0.400418 1.53923,0.452306 L 38.043,31.048802 38.02728,27.288563 38.011561,23.528324 37.83984,23.16763 c -0.314468,-0.66053 -0.862583,-1.063187 -1.590593,-1.168483 -0.463687,-0.06706 -24.041401,-0.0661 -24.505561,9.99e-4 -0.707638,0.102303 -1.272675,0.519091 -1.582754,1.167484 l -0.1724927,0.360694 -0.015722,3.761694 -0.015722,3.761694 0.2931787,-0.03546 c 0.161248,-0.0195 0.446042,-0.06931 0.632876,-0.110689 z"
     id="path86"
     transform="scale(0.5)" />
  <path
     style="fill:#800080;stroke-width:0.0554913;fill-opacity:1"
     d="M 23.084393,11.854208 C 20.832289,11.297597 19.507748,8.9279079 20.237467,6.7608755 20.364669,6.3831255 23.912574,0.13872832 24,0.13872832 c 0.08743,0 3.635331,6.24439718 3.762533,6.62214718 0.17466,0.5186846 0.241683,1.1661908 0.175149,1.6921132 -0.11706,0.9253096 -0.482591,1.6625653 -1.163781,2.3472763 -0.402698,0.40478 -0.557567,0.517824 -1.00088,0.730579 -0.288456,0.138436 -0.704193,0.291265 -0.92386,0.33962 -0.512858,0.112894 -1.270448,0.105916 -1.764768,-0.01626 z"
     id="path125"
     transform="scale(0.5)" />
  <path
     style="fill:#ffffff;stroke:none;stroke-width:0.0554913"
     d="M 7.6023123,43.869667 C 7.0684985,43.778687 6.5048269,43.317454 6.2287049,42.745691 l -0.1524042,-0.315582 0.00182,-9.006962 c 10e-4,-4.953829 0.024002,-9.381528 0.051114,-9.839332 0.057736,-0.974887 0.1900355,-1.468741 0.6169267,-2.30289 0.7584831,-1.482082 2.1302084,-2.576146 3.7991446,-3.030132 l 0.552961,-0.150417 2.746821,-0.04125 c 1.510751,-0.02269 3.964162,-0.04371 5.452023,-0.04672 l 2.705203,-0.0055 V 16.009249 14.011561 H 24 25.997688 v 1.997688 1.997688 l 0.235838,0.0057 c 0.129711,0.0031 2.608093,0.02397 5.507515,0.04635 l 5.271676,0.04069 0.493895,0.150043 c 1.684113,0.511626 3.00431,1.579571 3.747229,3.031241 0.432963,0.846014 0.559953,1.325781 0.616895,2.330636 0.02681,0.473064 0.04969,4.900738 0.05085,9.839275 l 0.0021,8.979159 -0.13945,0.294773 c -0.205989,0.435426 -0.523894,0.763933 -0.962135,0.994222 l -0.385162,0.202398 -16.306336,-0.0069 C 15.162129,43.910622 7.7243932,43.890473 7.6023123,43.869667 Z M 38.039307,37.013775 v -3.023221 l -0.124855,-0.0237 c -0.06867,-0.01303 -0.406724,-0.06274 -0.751229,-0.11045 -1.032808,-0.143046 -2.029611,-0.522192 -2.878524,-1.094882 -0.502418,-0.338939 -0.844391,-0.64781 -2.16594,-1.956286 l -1.065057,-1.054522 -1.27024,1.248414 c -1.408596,1.384393 -1.739134,1.660564 -2.422642,2.02417 -1.09078,0.580263 -2.067358,0.815763 -3.388565,0.817147 -1.182492,0.0012 -1.971913,-0.172187 -2.996111,-0.658212 -0.765448,-0.363236 -1.211075,-0.717807 -2.584653,-2.056527 -0.73312,-0.714515 -1.365455,-1.299119 -1.405189,-1.299119 -0.03973,0 -0.61499,0.524976 -1.278346,1.166613 -0.663355,0.641638 -1.372601,1.299848 -1.576103,1.46269 -0.95582,0.764848 -2.150655,1.264358 -3.394281,1.419006 -0.289942,0.03605 -0.583352,0.07683 -0.652023,0.09061 l -0.1248552,0.02505 v 3.023221 3.02322 H 24 38.039307 Z M 11.07052,30.882773 c 0.137341,-0.03642 0.432468,-0.153389 0.655837,-0.259922 0.456981,-0.21795 0.796525,-0.530766 3.626847,-3.341351 l 1.591355,-1.580257 2.126564,2.097471 c 1.169611,1.15361 2.324001,2.255503 2.56531,2.448652 0.664922,0.532216 1.33863,0.744896 2.357269,0.744153 0.64796,-4.99e-4 1.313254,-0.148506 1.869235,-0.415922 0.44738,-0.215181 1.02351,-0.745277 3.672336,-3.378905 l 1.512152,-1.503475 1.623109,1.612105 c 2.573281,2.555835 3.137369,3.081994 3.524392,3.287418 0.38425,0.203951 1.290387,0.45465 1.643404,0.454677 l 0.228723,1.7e-5 -0.018,-3.783411 -0.018,-3.783411 -0.141161,-0.281346 c -0.198402,-0.395435 -0.467816,-0.710221 -0.778458,-0.909559 -0.570899,-0.366345 0.324232,-0.343025 -13.109225,-0.341529 -7.836462,8.71e-4 -12.267516,0.02095 -12.420698,0.05629 -0.626266,0.14446 -1.149499,0.559261 -1.445759,1.146147 l -0.1664964,0.329829 -0.00889,3.769606 c -0.00489,2.073284 -0.00682,3.784876 -0.00428,3.803538 0.00539,0.0397 0.7523714,-0.07479 1.1144314,-0.170812 z"
     id="path6555"
     transform="scale(0.5)" />
  <path
     style="fill:#ffffff;stroke:none;stroke-width:0.0554913"
     d="M 23.056648,11.815939 C 22.888787,11.772132 22.519165,11.622218 22.235266,11.482796 21.381857,11.063687 20.657964,10.256463 20.316403,9.343042 20.046171,8.6203718 19.997964,7.7584477 20.187555,7.0392784 20.275256,6.7066029 20.848139,5.6321087 22.23837,3.1927861 23.477455,1.0186684 23.937728,0.24971099 24,0.24971099 c 0.07883,0 1.203335,1.91988771 2.730168,4.66127171 0.952026,1.7093334 1.02314,1.8596566 1.130564,2.3898158 0.252096,1.2441445 -0.155943,2.4979394 -1.135658,3.4895775 -0.351777,0.356058 -0.522341,0.479211 -0.952514,0.687744 -0.288202,0.139712 -0.672835,0.29244 -0.854738,0.339396 -0.418356,0.107993 -1.444645,0.107123 -1.861174,-0.0016 z"
     id="path6631"
     transform="scale(0.5)" />
</svg>
