<?xml version="1.0" encoding="UTF-8" standalone="no"?>
<svg
   height="48px"
   viewBox="0 0 24 24"
   width="48px"
   fill="#000000"
   version="1.1"
   id="svg6"
   sodipodi:docname="logo.svg"
   inkscape:version="1.1 (c68e22c387, 2021-05-23)"
   xmlns:inkscape="http://www.inkscape.org/namespaces/inkscape"
   xmlns:sodipodi="http://sodipodi.sourceforge.net/DTD/sodipodi-0.dtd"
   xmlns="http://www.w3.org/2000/svg"
   xmlns:svg="http://www.w3.org/2000/svg">
  <defs
     id="defs10" />
  <sodipodi:namedview
     id="namedview8"
     pagecolor="#ffffff"
     bordercolor="#666666"
     borderopacity="1.0"
     inkscape:pageshadow="2"
     inkscape:pageopacity="0.0"
     inkscape:pagecheckerboard="0"
     showgrid="false"
     inkscape:zoom="18.020833"
     inkscape:cx="24"
     inkscape:cy="24"
     inkscape:window-width="1920"
     inkscape:window-height="1054"
     inkscape:window-x="-9"
     inkscape:window-y="-9"
     inkscape:window-maximized="1"
     inkscape:current-layer="svg6" />
  <path
     d="M0 0h24v24H0V0z"
     fill="none"
     id="path2" />
  <path
     d="M12 6c1.11 0 2-.9 2-2 0-.38-.1-.73-.29-1.03L12 0l-1.71 2.97c-.19.3-.29.65-.29 1.03 0 1.1.9 2 2 2zm6 3h-5V7h-2v2H6c-1.66 0-3 1.34-3 3v9c0 .55.45 1 1 1h16c.55 0 1-.45 1-1v-9c0-1.66-1.34-3-3-3zm1 11H5v-3c.9-.01 1.76-.37 2.4-1.01l1.09-1.07 1.07 1.07c1.31 1.31 3.59 1.3 4.89 0l1.08-1.07 1.07 1.07c.64.64 1.5 1 2.4 1.01v3zm0-4.5c-.51-.01-.99-.2-1.35-.57l-2.13-2.13-2.14 2.13c-.74.74-2.03.74-2.77 0L8.48 12.8l-2.14 2.13c-.35.36-.83.56-1.34.57V12c0-.55.45-1 1-1h12c.55 0 1 .45 1 1v3.5z"
     id="path4" />
  <path
     style="fill:#800080;stroke-width:0.0554913"
     d="M 7.5151546,43.901238 C 6.9451175,43.747009 6.4602785,43.328949 6.1947837,42.762729 L 6.0485549,42.450867 v -9.572254 c 0,-10.285626 -0.012834,-9.807351 0.2881218,-10.737573 0.7135378,-2.205469 2.7003561,-3.815029 5.0298553,-4.074784 0.338713,-0.03777 2.367351,-0.05932 5.583882,-0.05932 h 5.051898 V 16.009249 14.011561 H 24 25.997688 v 1.995136 1.995137 l 5.396532,0.02002 c 5.300939,0.01966 5.405182,0.02213 5.884876,0.139473 2.100072,0.513699 3.74634,2.008073 4.384227,3.979714 0.300956,0.930222 0.288122,0.451947 0.288122,10.737573 v 9.572254 l -0.14763,0.314922 c -0.20669,0.440908 -0.547672,0.789195 -0.981968,1.003001 l -0.366323,0.180343 -16.343369,0.01036 c -12.833356,0.0081 -16.3978405,-0.0044 -16.5970004,-0.05826 z M 38.039306,37.020325 v -3.016669 l -0.587327,-0.06609 c -1.217155,-0.13696 -2.219212,-0.4958 -3.190881,-1.142667 -0.439547,-0.292618 -0.857638,-0.664323 -1.890514,-1.680762 l -1.326158,-1.305055 -1.260942,1.245706 c -0.693517,0.685138 -1.419682,1.363445 -1.6137,1.50735 -1.762197,1.307036 -4.27677,1.693141 -6.398144,0.982416 -0.671033,-0.224817 -1.383183,-0.593391 -1.907051,-0.986997 -0.243443,-0.18291 -0.979285,-0.872205 -1.635203,-1.531766 -0.655919,-0.659561 -1.215154,-1.199202 -1.242745,-1.199202 -0.02759,0 -0.640129,0.581665 -1.361198,1.292589 -1.027808,1.013349 -1.434156,1.374556 -1.880965,1.672009 -0.977374,0.650664 -1.976956,1.009155 -3.196457,1.146379 l -0.5873274,0.06609 v 3.016669 3.016669 H 24 38.039306 Z M 10.88305,30.905563 c 0.410926,-0.091 0.868986,-0.288216 1.226355,-0.527996 0.145838,-0.09785 1.294953,-1.203841 2.553588,-2.457752 l 2.288427,-2.279839 2.345099,2.332819 c 2.552129,2.538765 2.582626,2.563534 3.510417,2.851102 1.076168,0.333557 2.48983,0.136111 3.412717,-0.476652 0.167861,-0.111454 1.32279,-1.216176 2.566509,-2.454937 l 2.261306,-2.252294 2.37222,2.361035 c 2.115743,2.105769 2.414487,2.382765 2.76316,2.562015 0.428954,0.220521 1.041156,0.400418 1.53923,0.452306 L 38.043,31.048802 38.02728,27.288563 38.011561,23.528324 37.83984,23.16763 c -0.314468,-0.66053 -0.862583,-1.063187 -1.590593,-1.168483 -0.463687,-0.06706 -24.041401,-0.0661 -24.505561,9.99e-4 -0.707638,0.102303 -1.272675,0.519091 -1.582754,1.167484 l -0.1724927,0.360694 -0.015722,3.761694 -0.015722,3.761694 0.2931787,-0.03546 c 0.161248,-0.0195 0.446042,-0.06931 0.632876,-0.110689 z"
     id="path86"
     transform="scale(0.5)" />
  <path
     style="fill:#800080;stroke-width:0.0554913;fill-opacity:1"
     d="M 23.084393,11.854208 C 20.832289,11.297597 19.507748,8.9279079 20.237467,6.7608755 20.364669,6.3831255 23.912574,0.13872832 24,0.13872832 c 0.08743,0 3.635331,6.24439718 3.762533,6.62214718 0.17466,0.5186846 0.241683,1.1661908 0.175149,1.6921132 -0.11706,0.9253096 -0.482591,1.6625653 -1.163781,2.3472763 -0.402698,0.40478 -0.557567,0.517824 -1.00088,0.730579 -0.288456,0.138436 -0.704193,0.291265 -0.92386,0.33962 -0.512858,0.112894 -1.270448,0.105916 -1.764768,-0.01626 z"
     id="path125"
     transform="scale(0.5)" />
</svg>
